<svg id="Capa_1" enable-background="new 0 0 512 512" height="512" viewBox="0 0 512 512" width="512" xmlns="http://www.w3.org/2000/svg"><g><path d="m437.758 481-3.193-10.737c-6.27-21.152-35.215-28.418-58.477-34.263-26.162-6.519-53.145-13.257-58.828-34.731l-2.578-9.712-9.99-1.304c-14.268-1.846-28.096-7.28-40.049-15.703l-8.643-6.094-8.643 6.108c-35.035 24.652-85.521 19.415-114.932-10.444l-5.449-5.537-7.676 1.274c-53.009 8.669-103.3-33.183-103.3-88.857 0-23.906 9.551-46.479 26.865-63.589l5.537-5.449-1.26-7.676c-6.577-40.095 15.81-81.277 56.602-96.885l6.299-2.388 2.402-6.284c13.36-35.068 46.172-57.729 83.555-57.729 18.369 0 36.123 5.684 51.328 16.45l8.672 6.109 8.672-6.123c15.205-10.752 32.959-16.436 51.328-16.436 37.383 0 70.195 22.661 83.555 57.744l2.402 6.27 6.299 2.388c41.023 15.696 63.185 57.087 56.602 96.841l-1.26 7.72 5.508 5.449c17.343 17.109 26.894 39.682 26.894 63.588 0 37.529-23.701 71.484-58.975 84.507l-24.668 9.097 20.361 16.597c21.153 17.211 33.282 42.655 33.282 69.799v30z" fill="#ffb3b3"/><path d="m264.643 374.55c11.953 8.423 25.781 13.857 40.049 15.703l9.99 1.304 2.578 9.712c5.684 21.475 32.666 28.213 58.828 34.731 23.262 5.845 52.207 13.11 58.477 34.263l3.193 10.737h28.242v-30c0-27.144-12.129-52.588-33.281-69.8l-20.361-16.597 24.668-9.097c35.273-13.022 58.974-46.977 58.974-84.506 0-23.906-9.551-46.479-26.895-63.589l-5.508-5.449 1.26-7.72c6.583-39.754-15.579-81.145-56.602-96.841l-6.299-2.388-2.402-6.27c-13.359-35.082-46.171-57.743-83.554-57.743-18.369 0-36.123 5.684-51.328 16.436l-8.672 6.123v314.897z" fill="#ff8080"/><path d="m512 271c0-27.935-12.338-54.536-32.348-74.268 7.845-47.325-18.876-95.32-66.064-113.335-15.498-40.634-53.789-67.397-97.588-67.397-21.445 0-42.363 6.738-60 19.189-17.637-12.451-38.555-19.189-60-19.189-43.799 0-82.09 26.763-97.588 67.397-47.125 17.991-73.92 65.947-66.064 113.335-20.01 19.732-32.348 46.333-32.348 74.268 0 64.665 59.498 113.969 121.732 103.652 34.863 35.376 93.633 40.825 134.268 12.158 13.975 9.858 30 16.143 46.758 18.325 7.969 30 41.777 38.452 69.609 45.41 33.047 8.277 48.633 13.976 48.633 30.455v15h60v-45c0-32.813-15.146-62.168-38.789-81.431 40.107-14.795 69.789-53.393 69.789-98.569zm-106 75h-30v30c41.367 0 75 33.647 75 75v15h-1.992c-8.379-29.312-41.807-37.661-69.375-44.546-33.047-8.276-48.633-13.975-48.633-30.454v-15h-15c-18.252 0-36.006-6.929-49.951-19.497l-10.049-9.038-10.049 9.038c-30.791 27.729-80.918 23.921-107.314-7.837l-5.977-7.192-9.082 2.197c-49.201 11.808-92.578-25.909-92.578-72.671 0-22.017 9.961-42.935 27.334-57.363l.079-.066c10.671-8.857 22.48-14.427 35.078-16.531l-4.98-29.59c-9.307 1.558-18.422 4.598-27.127 8.828 1.959-31.049 22.674-57.546 53.143-66.703l7.734-2.329 2.314-7.72c9.638-32.022 38.32-53.526 71.425-53.526 18.252 0 36.006 6.929 49.951 19.497l10.049 9.038 10.049-9.038c13.945-12.568 31.699-19.497 49.951-19.497 33.105 0 61.787 21.504 71.426 53.525l2.314 7.72 7.734 2.329c30.469 9.157 51.183 35.654 53.143 66.703-8.705-4.23-17.82-7.269-27.127-8.828l-4.98 29.59c12.598 2.104 24.406 7.674 35.078 16.531l.079.066c17.372 14.429 27.333 35.347 27.333 57.364 0 41.353-33.633 75-75 75z" fill="#fcc"/><path d="m266.049 65.497c13.945-12.568 31.699-19.497 49.951-19.497 33.105 0 61.787 21.504 71.426 53.525l2.314 7.72 7.734 2.329c30.469 9.157 51.183 35.654 53.143 66.703-8.705-4.23-17.82-7.269-27.127-8.828l-4.98 29.59c12.598 2.104 24.406 7.674 35.078 16.531l.079.066c17.372 14.429 27.333 35.347 27.333 57.364 0 41.353-33.633 75-75 75h-30v30c41.367 0 75 33.647 75 75v15h-1.992c-8.379-29.312-41.807-37.661-69.375-44.546-33.047-8.276-48.633-13.975-48.633-30.454v-15h-15c-18.252 0-36.006-6.929-49.951-19.497l-10.049-9.038v39.346c13.975 9.858 30 16.143 46.758 18.325 7.969 30 41.777 38.452 69.609 45.41 33.047 8.276 48.633 13.975 48.633 30.454v15h60v-45c0-32.813-15.146-62.168-38.789-81.431 40.107-14.795 69.789-53.393 69.789-98.569 0-27.935-12.338-54.536-32.348-74.268 7.846-47.325-18.876-95.321-66.064-113.335-15.498-40.634-53.789-67.397-97.588-67.397-21.445 0-42.363 6.738-60 19.189v39.346z" fill="#ffb3b3"/><g><path d="m301 346h-90v-70.503c-36.299-17.271-60-54.009-60-94.497 0-57.891 47.109-105 105-105s105 47.109 105 105c0 40.488-23.701 77.227-60 94.497z" fill="#fd3"/></g><path d="m301 346v-70.503c36.299-17.271 60-54.009 60-94.497 0-57.891-47.109-105-105-105v270z" fill="#fb3"/><g id="Idea_2_"><g><path d="m256 232.211-40.605-40.606 21.21-21.21 19.395 19.394 19.395-19.394 21.21 21.21z" fill="#474f54"/></g></g><g><path d="m296.605 191.605-21.21-21.21-19.395 19.394v42.422z" fill="#32393f"/></g></g></svg>