<?xml version="1.0"?>
<svg xmlns="http://www.w3.org/2000/svg" xmlns:xlink="http://www.w3.org/1999/xlink" viewBox="0 0 64 64" width="512" height="512"><defs><linearGradient id="New_Gradient_Swatch" x1="31.998" y1="64.397" x2="31.998" y2="0.025" gradientUnits="userSpaceOnUse"><stop offset="0" stop-color="#e93e3a"/><stop offset="0.35" stop-color="#ed683c"/><stop offset="0.7" stop-color="#f3903f"/><stop offset="1" stop-color="#fdc70c"/></linearGradient><linearGradient id="New_Gradient_Swatch-2" x1="55" y1="64.397" x2="55" y2="0.025" xlink:href="#New_Gradient_Swatch"/><linearGradient id="New_Gradient_Swatch-3" x1="53" y1="64.397" x2="53" y2="0.025" xlink:href="#New_Gradient_Swatch"/><linearGradient id="New_Gradient_Swatch-5" x1="8.997" y1="64.397" x2="8.997" y2="0.025" xlink:href="#New_Gradient_Swatch"/><linearGradient id="New_Gradient_Swatch-6" x1="10.997" y1="64.397" x2="10.997" y2="0.025" xlink:href="#New_Gradient_Swatch"/></defs><g id="Leader"><path d="M38.04,56,39,32.09l.979-10.768L49.013,6.494A2.978,2.978,0,0,0,49.418,5,3,3,0,0,0,43.835,3.47L35.47,17.155c-.156-.033-.312-.061-.47-.084v-1.1A4.977,4.977,0,0,0,37,12V11a1,1,0,0,0,1-1V8A6,6,0,0,0,26,8v2a1,1,0,0,0,1,1v1a4.977,4.977,0,0,0,2,3.974v1.1c-.158.023-.314.051-.47.084L20.174,3.487a3,3,0,1,0-5.18,3.022l9.031,14.813L25,32.04,25.96,56A3,3,0,0,0,23,59v2a1,1,0,0,0,1,1h6a1,1,0,0,0,.447-.1L32,61.118l1.553.777A1,1,0,0,0,34,62h6a1,1,0,0,0,1-1V59A3,3,0,0,0,38.04,56ZM31,37V56H27.961L27.04,33h9.919l-.92,23H33V37ZM28,8a4,4,0,0,1,8,0V9h-.171a1,1,0,0,1-.708-.293L33.707,7.293a1,1,0,0,0-1.414,0l-.829.829A3.02,3.02,0,0,1,29.343,9H28Zm1.343,3a4.966,4.966,0,0,0,3.535-1.464L33,9.414l.707.707A2.96,2.96,0,0,0,35,10.87V12a3,3,0,0,1-6,0V11ZM32,17a5,5,0,0,0,1-.1v.687l-1,1-1-1V16.9A5,5,0,0,0,32,17ZM16.713,5.487A.975.975,0,0,1,16.578,5a1,1,0,0,1,1.877-.488l8.762,14.331a1,1,0,0,0,1.178.425,4.805,4.805,0,0,1,1.222-.235L31,20.414V28h2V20.414l1.383-1.383a4.805,4.805,0,0,1,1.222.235,1,1,0,0,0,1.178-.425L45.554,4.493A1,1,0,0,1,47.418,5a.949.949,0,0,1-.124.47L38.146,20.479A1,1,0,0,0,38,20.91L37.088,31H26.913L26,20.91a1,1,0,0,0-.142-.431ZM29.764,60H25V59a1,1,0,0,1,1-1h5v1.382ZM39,60H34.236L33,59.382V58h5a1,1,0,0,1,1,1Z" style="fill:url(#New_Gradient_Swatch)"/><path d="M62.106,29.691A1,1,0,0,0,61.155,29H57.18l-1.229-3.781a1,1,0,0,0-1.9,0L52.82,29H48.845a1,1,0,0,0-.588,1.809l3.216,2.337-1.228,3.781a1,1,0,0,0,1.539,1.118L55,35.708l3.216,2.337a1,1,0,0,0,1.539-1.118l-1.228-3.781,3.216-2.337A1,1,0,0,0,62.106,29.691ZM56.4,33.073l.5,1.545-1.314-.955a1,1,0,0,0-1.176,0l-1.314.955.5-1.545a1,1,0,0,0-.363-1.118L51.922,31h1.625a1,1,0,0,0,.951-.691l.5-1.545.5,1.545a1,1,0,0,0,.951.691h1.625l-1.315.955A1,1,0,0,0,56.4,33.073Z" style="fill:url(#New_Gradient_Swatch-2)"/><path d="M45.894,13.691a1,1,0,0,0,.363,1.118l3.216,2.337-1.228,3.781a1,1,0,0,0,1.539,1.118L53,19.708l3.216,2.337a1,1,0,0,0,1.539-1.118l-1.228-3.781,3.216-2.337A1,1,0,0,0,59.155,13H55.18L53.951,9.219a1,1,0,0,0-1.9,0L50.82,13H46.845A1,1,0,0,0,45.894,13.691ZM51.547,15a1,1,0,0,0,.951-.691l.5-1.545.5,1.545a1,1,0,0,0,.951.691h1.625l-1.315.955a1,1,0,0,0-.363,1.118l.5,1.545-1.314-.955a1,1,0,0,0-1.176,0l-1.314.955.5-1.545a1,1,0,0,0-.363-1.118L49.922,15Z" style="fill:url(#New_Gradient_Swatch-3)"/><path d="M59.155,47H55.18l-1.229-3.781a1,1,0,0,0-1.9,0L50.82,47H46.845a1,1,0,0,0-.588,1.809l3.216,2.337-1.228,3.781a1,1,0,0,0,1.539,1.118L53,53.708l3.216,2.337a1,1,0,0,0,1.539-1.118l-1.228-3.781,3.216-2.337A1,1,0,0,0,59.155,47ZM54.4,51.073l.5,1.545-1.314-.955a1,1,0,0,0-1.176,0l-1.314.955.5-1.545a1,1,0,0,0-.363-1.118L49.922,49h1.625a1,1,0,0,0,.951-.691l.5-1.545.5,1.545a1,1,0,0,0,.951.691h1.625l-1.315.955A1,1,0,0,0,54.4,51.073Z" style="fill:url(#New_Gradient_Swatch-3)"/><path d="M4.241,36.927A1,1,0,0,0,5.78,38.045L9,35.708l3.216,2.337a1,1,0,0,0,1.539-1.118l-1.229-3.781,3.217-2.337A1,1,0,0,0,15.152,29H11.176L9.948,25.219a1,1,0,0,0-1.9,0L6.817,29H2.841a1,1,0,0,0-.588,1.809L5.47,33.146ZM7.543,31a1,1,0,0,0,.952-.691L9,28.764l.5,1.545A1,1,0,0,0,10.45,31h1.624l-1.314.955a1,1,0,0,0-.364,1.118l.5,1.545-1.314-.955a1,1,0,0,0-1.175,0L7.1,34.618l.5-1.545a1,1,0,0,0-.364-1.118L5.919,31Z" style="fill:url(#New_Gradient_Swatch-5)"/><path d="M17.152,13H13.176L11.948,9.219a1,1,0,0,0-1.9,0L8.817,13H4.841a1,1,0,0,0-.588,1.809L7.47,17.146,6.241,20.927A1,1,0,0,0,7.78,22.045L11,19.708l3.216,2.337a1,1,0,0,0,1.539-1.118l-1.229-3.781,3.217-2.337A1,1,0,0,0,17.152,13ZM12.4,17.073l.5,1.545-1.314-.955a1,1,0,0,0-1.175,0L9.1,18.618l.5-1.545a1,1,0,0,0-.364-1.118L7.919,15H9.543a1,1,0,0,0,.952-.691l.5-1.545.5,1.545A1,1,0,0,0,12.45,15h1.624l-1.314.955A1,1,0,0,0,12.4,17.073Z" style="fill:url(#New_Gradient_Swatch-6)"/><path d="M17.152,47H13.176l-1.228-3.781a1,1,0,0,0-1.9,0L8.817,47H4.841a1,1,0,0,0-.588,1.809L7.47,51.146,6.241,54.927A1,1,0,0,0,7.78,56.045L11,53.708l3.216,2.337a1,1,0,0,0,1.539-1.118l-1.229-3.781,3.217-2.337A1,1,0,0,0,17.152,47ZM12.4,51.073l.5,1.545-1.314-.955a1,1,0,0,0-1.175,0L9.1,52.618l.5-1.545a1,1,0,0,0-.364-1.118L7.919,49H9.543a1,1,0,0,0,.952-.691l.5-1.545.5,1.545A1,1,0,0,0,12.45,49h1.624l-1.314.955A1,1,0,0,0,12.4,51.073Z" style="fill:url(#New_Gradient_Swatch-6)"/></g></svg>
